<?xml version="1.0" encoding="utf-8"?>
<!-- Generator: Adobe Illustrator 16.0.0, SVG Export Plug-In . SVG Version: 6.00 Build 0)  -->
<!DOCTYPE svg PUBLIC "-//W3C//DTD SVG 1.1//EN" "http://www.w3.org/Graphics/SVG/1.1/DTD/svg11.dtd">
<svg version="1.1" id="Layer_1" xmlns="http://www.w3.org/2000/svg" xmlns:xlink="http://www.w3.org/1999/xlink" x="0px" y="0px"
	 width="1216px" height="705px" viewBox="0 0 1216 705" enable-background="new 0 0 1216 705" xml:space="preserve">
<linearGradient id="SVGID_1_" gradientUnits="userSpaceOnUse" x1="-6.2085" y1="356.8467" x2="1239.625" y2="356.8467">
	<stop  offset="0" style="stop-color:#00AEEF"/>
	<stop  offset="1" style="stop-color:#1C75BC"/>
</linearGradient>
<rect x="-6.208" y="-28.89" fill="url(#SVGID_1_)" width="1245.833" height="771.473"/>
<rect x="121.916" y="252.95" fill="none" width="450.177" height="225.487"/>
<text transform="matrix(1 0 0 1 121.9155 324.665)"><tspan x="0" y="0" font-family="'VremyaFWF'" font-size="105">ELI5:</tspan><tspan x="0" y="126.001" font-family="'VremyaFWF'" font-size="105">BITCOIN</tspan></text>
<text transform="matrix(1 0 0 1 131.3335 216.625)" fill="#E7CF7D" font-family="'MyriadPro-Regular'" font-size="38">Article</text>
<g>
	<path fill-rule="evenodd" clip-rule="evenodd" fill="#365C70" d="M988.032,484.14c-0.405,0.195-0.811,0.391-1.215,0.587
		c-6.563,3.129-13.053,6.422-19.703,9.354c-13.862,6.109-28.541,9.332-43.404,11.824c-2.656,0.12-5.319,0.157-7.967,0.374
		c-27.756,2.271-54.405-2.352-79.643-13.901c-45.414-20.783-75.72-55.202-90.857-102.83c-0.866-2.725-1.905-3.803-4.764-3.671
		c-5.476,0.253-10.966,0.192-16.451,0.261c-9.663,0.008-19.326,0.014-28.989,0.021c-10.077-0.062-20.154-0.132-30.231-0.172
		c-1.101-0.005-2.009,0.027-2.951,1.169c-6.939,8.407-11.733,8.337-18.809-0.058c0-2.332,0-4.666,0-6.998
		c6.609-8.613,12.384-8.783,18.767-0.307c1.072,1.425,2.137,1.277,3.36,1.275c10.286-0.021,20.572-0.091,30.859-0.146
		c8.991,0.007,17.983,0.013,26.976,0.021c5.652,0.055,11.306,0.086,16.958,0.176c1.892,0.029,3.09,0.016,2.416-2.666
		c-1.09-4.336-1.701-8.8-2.377-13.23c-0.259-1.702-0.754-2.85-2.707-2.816c-13.453,0.232-26.915-0.697-40.362,0.318
		c-2.155-0.052-4.313-0.186-6.468-0.139c-4.629,0.098-9.014-0.669-12.384,4.674c-2.832,4.489-9.906,3.539-13.573-0.567
		c-3.627-4.061-3.252-10.224,0.842-13.834c4.098-3.615,10.854-3.608,13.62,1.026c2.404,4.029,5.37,4.116,9.035,3.986
		c2.987-0.106,5.978-0.093,8.967-0.133c0.355,0.016,0.711,0.031,1.066,0.048c8.31-0.022,16.619-0.044,24.929-0.065
		c3.471,0.078,6.984-0.158,10.401,0.311c5.187,0.712,6.454-1.536,5.355-6.08c-1.001-4.133,1.538-10.1-1.651-12.129
		c-3.178-2.021-8.628-0.472-13.082-0.487c-9.307-0.008-18.613-0.017-27.919-0.025c-0.35,0.008-0.698,0.016-1.048,0.023
		c-9.811-0.039-19.62-0.099-29.431-0.094c-1.371,0.001-2.609-0.254-3.81,1.405c-6.085,8.409-12.457,8.135-18.74-0.54
		c0-2.333,0-4.666,0-6.999c2.327-1.953,3.784-4.969,7.119-5.692c3.902-0.846,7.894-0.306,9.793,3.119
		c2.168,3.908,5.073,3.954,8.639,3.88c8.479-0.174,16.963-0.176,25.445-0.248c10.667,0.557,21.334,0.548,32,0.002
		c1.312,0.098,2.624,0.301,3.934,0.276c9.479-0.183,8.466,1.69,9.094-8.619c0.619-10.162,0.674-10.159-10.047-9.644
		c-5.266-0.051-10.531-0.089-15.797-0.164c-1.555-0.022-2.676,0.177-3.479,1.927c-1.661,3.613-4.87,5.171-8.742,5.465
		c-0.305-0.18-0.616-0.193-0.935-0.038c-1.516-0.625-3.131-1.081-4.527-1.908c-3.346-1.981-4.431-5.21-4.042-8.86
		c0.419-3.941,2.583-6.864,6.378-8.124c3.703-1.229,8.146-1.041,9.896,2.354c2.659,5.154,6.688,4.349,10.834,4.335
		c4.47-0.016,8.938-0.115,13.407-0.178c2.148,0.06,4.3,0.06,6.442,0.2c1.731,0.112,2.863-0.396,3.188-2.248
		c2.233-12.756,6.915-24.755,11.404-36.814l-0.003,0.006c0.216-0.335,0.433-0.671,0.648-1.007
		c5.715-11.032,11.762-21.857,19.434-31.692c3.693-4.735,5.536-4.54,8.364,0.979c-0.612,2.706-2.53,4.63-4.068,6.785
		c-28.355,39.722-38.522,83.6-26.655,131.042c13.294,53.146,46.513,89.933,97.427,110.372c9.217,3.7,18.775,6.699,28.856,7.304
		c15.241,3.236,30.551,3.18,45.905,0.938c0.485-0.093,0.971-0.185,1.456-0.277c0.864-0.169,1.729-0.337,2.594-0.506
		c1.646-0.12,3.326-0.062,4.93-0.386c35.088-7.079,64.924-23.521,89.095-50.053c2.116-2.322,4.094-4.81,6.812-6.511
		c5.181,3.075,5.551,4.772,1.805,9.175c-2.256,2.65-4.648,5.187-7.006,7.75C1012.478,467.096,1000.254,475.617,988.032,484.14z"/>
	<path fill-rule="evenodd" clip-rule="evenodd" fill="#FAFBF2" d="M956.646,184.312c11.763-4.974,23.59-9.765,36.104-12.58
		c12.617-2.838,25.393-5.174,38.321-4.495c28.646,1.504,55.808,8.483,78.706,26.58c13.896,10.982,22.817,25.251,24.448,43.846
		c1.269,14.458-2.349,27.877-5.838,41.4c-3.724,14.432-7.093,28.864-8.558,43.74c-0.373,3.792-0.816,7.558-0.844,11.368
		c-15.816,0.107-31.634,0.177-47.45,0.36c-2.52,0.029-3.079-1.259-3.231-3.343c-0.349-4.809-2.766-10.982-0.647-14.045
		c2.272-3.285,8.934-0.692,13.654-1.125c3.629-0.333,6.261,0.224,8.561,3.961c2.766,4.495,9.831,4.358,13.702,0.667
		c3.895-3.714,3.988-10.087,0.203-13.91c-3.751-3.789-10.906-4.154-13.718,0.279c-2.686,4.233-5.968,4.349-9.964,4.185
		c-2.829-0.116-5.691-0.266-8.492,0.035c-4.147,0.446-5.824-0.838-6.805-5.273c-8.459-38.258-28.023-69.723-58.599-94.324
		C991.265,199.622,974.434,191.117,956.646,184.312z M1063.856,237.349c-0.142-3.992-4.03-7.515-8.017-7.263
		c-3.847,0.244-7.069,3.812-6.954,7.701c0.115,3.884,3.576,7.305,7.394,7.309C1060.223,245.1,1063.995,241.243,1063.856,237.349z"/>
	<path fill-rule="evenodd" clip-rule="evenodd" fill="#FAFBF2" d="M781.495,240.416c-2.828-5.522-4.671-5.717-8.364-0.982
		c-7.672,9.834-13.719,20.66-19.434,31.692c-0.216,0.336-0.433,0.672-0.648,1.007l0.003-0.006c-0.47,0.132-1.152,0.109-1.378,0.418
		c-8.595,11.767-15.525,24.391-19.656,38.443c-4.469,0.063-8.938,0.163-13.407,0.178c-4.146,0.014-8.175,0.819-10.834-4.335
		c-1.75-3.394-6.193-3.583-9.896-2.354c-3.795,1.26-5.959,4.183-6.378,8.124c-0.389,3.65,0.696,6.879,4.042,8.86
		c1.396,0.827,3.012,1.283,4.527,1.908c0.295,0.439,0.605,0.462,0.935,0.038c3.872-0.294,7.081-1.852,8.742-5.465
		c0.804-1.75,1.925-1.949,3.479-1.927c5.266,0.075,10.531,0.112,15.797,0.164c0.354,6.219-3.849,11.683-2.98,17.987
		c-10.666,0.546-21.333,0.555-32-0.002c-0.672-6.634-2.556-12.988-4.654-19.266c-7.347-21.978-16.803-43.354-20.024-66.526
		c-2.569-18.485-0.814-36.417,9.827-52.491c9.181-13.867,22.612-20.992,38.68-23.759c19.423-3.344,37.57,1.427,55.118,9.064
		c14.902,6.486,28.89,14.792,42.966,22.884c1.422,0.818,3.169,1.293,3.162,3.414C805.309,217.012,792.104,227.23,781.495,240.416z
		 M767.447,215.728c-0.298-3.613-2.32-5.895-5.904-6.015c-3.623-0.121-5.818,2.177-6.282,5.713c-0.406,3.097,3.035,6.69,6.176,6.408
		C764.974,221.517,767.089,219.434,767.447,215.728z M730.042,264.021c-0.407-0.53-0.768-1.443-1.186-1.471
		c-2.928-0.191-4.597-1.217-4.83-4.551c-0.106-1.519-2.632-1.637-2.919-0.274c-0.644,3.053-1.79,4.889-5.123,4.928
		c-0.3,0.003-0.862,1.521-0.843,1.533c3.081,1.763,5.617,4.035,7.158,7.3c2.853-1.425,2.201-6.896,7.028-6.114
		C729.473,265.395,729.751,264.587,730.042,264.021z"/>
	<path fill-rule="evenodd" clip-rule="evenodd" fill="#FAFBF2" d="M988.032,484.14c12.222-8.522,24.445-17.044,34.612-28.095
		c2.357-2.563,4.75-5.1,7.006-7.75c3.746-4.402,3.376-6.1-1.804-9.175c2.141-2.083,3.376-5.017,6.128-6.526
		c3.464,3.217,6.167,2.37,8.404-1.498c1.412-2.44,2.985-4.789,4.427-7.214c3.09-5.201,2.482-6.724-3.312-8.487
		c4.558-9.532,8.956-19.126,11.53-29.436c21.988,0.067,43.977,0.135,65.964,0.201c0.339,5.457,0.487,10.951,0.666,16.383
		c0.771,23.458-1.347,46.559-14.452,67.042c-12.965,20.266-31.572,32.737-55.29,36.146c-18.928,2.721-36.713-1.376-51.851-14.052
		C996.418,488.629,992.663,485.66,988.032,484.14z M1055.77,447.251c-0.022,3.753,2.69,6.645,5.822,6.743
		c3.155,0.1,6.636-3.215,6.28-6.347c-0.399-3.511-2.443-5.835-6.17-5.774C1058.015,441.933,1056.082,444.145,1055.77,447.251z
		 M1043.85,463.118c-1.307-0.213-2.245,0.316-2.254,1.101c-0.035,3.059-1.558,4.09-4.454,4.47c-1.473,0.192-1.741,2.83-0.457,3.001
		c3.346,0.447,4.758,2.046,5.143,5.163c0.048,0.391,1.313,1.084,1.548,0.93c2.557-1.688,2.252-6.525,6.787-6.158
		c0.177,0.014,0.71-0.927,0.591-1.236c-1.133-2.962-6.918-1.836-5.977-6.75C1044.804,463.494,1043.978,463.187,1043.85,463.118z"/>
	<path fill-rule="evenodd" clip-rule="evenodd" fill="#BEAB84" d="M1033.975,432.594c-2.752,1.51-3.987,4.443-6.128,6.526
		c-2.719,1.701-4.696,4.188-6.812,6.511c-24.171,26.531-54.007,42.974-89.095,50.053c-1.604,0.323-3.284,0.266-4.93,0.386
		c1.347-1.416,3.249-1.551,4.957-2.072c32.093-9.792,59.001-27.394,79.548-54.001c27.919-36.157,38.625-77.022,31.581-122.257
		c-5.565-35.737-21.924-65.769-48.315-90.525c-14.524-13.623-30.895-24.284-49.435-31.24c-16.935-6.354-34.117-11.973-52.848-8.956
		c-32.326,5.206-60.371,19.048-84.093,41.4c-15.903,14.985-28.118,32.718-36.549,52.989c-12.592,30.276-15.667,61.461-9,93.549
		c5.451,26.231,16.898,49.534,34.315,69.968c15.362,18.022,33.822,31.722,55.321,41.588c8.012,3.677,16.535,5.856,24.562,9.402
		c-10.081-0.604-19.64-3.604-28.856-7.304c-50.914-20.439-84.133-57.227-97.427-110.372c-11.867-47.441-1.7-91.319,26.655-131.042
		c1.538-2.155,3.456-4.08,4.068-6.785c10.608-13.182,23.813-23.4,37.623-32.928c2.134-1.159,4.268-2.321,6.401-3.482
		c10.21-4.417,20.077-9.725,30.851-12.7c14.666-4.047,29.298-7.171,44.898-6.572c10.731,0.413,21.443,0.148,32.046,2.168
		c73.825,14.063,127.585,79.072,127.594,154.189c0.002,15.229-2.997,30.036-5.884,44.871c-2.574,10.31-6.973,19.903-11.528,29.436
		C1039.187,420.498,1034.691,425.5,1033.975,432.594z"/>
	<path fill-rule="evenodd" clip-rule="evenodd" fill="#FAFBF2" d="M695.039,386.158c9.663-0.008,19.326-0.014,28.989-0.021
		c1.004,9.756,3.243,19.296,6.427,28.496c10.782,31.161,28.692,57.406,55.136,77.448c28.538,21.63,60.883,32.188,96.585,33.069
		c7.007,0.173,13.852-1.64,20.842-1.07c-1.033,4.148-5.103,4.467-8.008,5.741c-11.772,5.166-24.186,7.396-37.06,8.429
		c-25.47,2.043-50.232-1.938-74.505-8.473c-25.302-6.812-48.404-18.485-66.382-38.273c-14.663-16.139-23.45-34.896-25.191-57.053
		C690.586,418.098,693.059,402.19,695.039,386.158z M721.936,428.059c-4-0.078-7.786,3.633-7.724,7.571
		c0.058,3.688,3.693,7.341,7.41,7.445c3.978,0.111,7.624-3.559,7.577-7.628C729.154,431.544,725.803,428.135,721.936,428.059z"/>
	<path fill-rule="evenodd" clip-rule="evenodd" fill="#DFE3E0" d="M903.018,524.08c-6.99-0.569-13.835,1.243-20.842,1.07
		c-35.702-0.881-68.047-11.439-96.585-33.069c-26.443-20.042-44.354-46.287-55.136-77.448c-3.184-9.2-5.423-18.74-6.427-28.496
		c5.485-0.068,10.976-0.008,16.451-0.261c2.858-0.132,3.897,0.946,4.764,3.671c15.138,47.628,45.443,82.047,90.857,102.83
		c25.237,11.55,51.887,16.172,79.643,13.901c2.647-0.217,5.311-0.254,7.967-0.374c1.705,1.393-0.222,1.864-0.7,2.668
		c-3.283,5.515-9.477,8.242-12.996,13.537C907.866,523.419,905.468,523.843,903.018,524.08z"/>
	<path fill-rule="evenodd" clip-rule="evenodd" fill="#365C70" d="M1054.024,385.959c2.887-14.835,5.886-29.642,5.884-44.871
		c-0.009-75.117-53.769-140.125-127.594-154.189c-10.603-2.02-21.314-1.756-32.046-2.168c-15.601-0.599-30.232,2.525-44.898,6.572
		c-10.773,2.975-20.641,8.283-30.851,12.7c-5.151-3.926-4.968-6.234,0.896-9.248c40.752-20.941,83.073-24.432,126.874-11.343
		c1.109,0.332,2.237,0.601,3.355,0.899c17.788,6.806,34.619,15.31,49.554,27.326c30.575,24.601,50.14,56.065,58.599,94.324
		c0.98,4.435,2.657,5.719,6.805,5.273c2.801-0.301,5.663-0.151,8.492-0.035c3.996,0.164,7.278,0.049,9.964-4.185
		c2.812-4.433,9.967-4.068,13.718-0.279c3.785,3.823,3.691,10.196-0.203,13.91c-3.871,3.691-10.937,3.828-13.702-0.667
		c-2.3-3.737-4.932-4.294-8.561-3.961c-4.721,0.434-11.382-2.159-13.654,1.125c-2.118,3.062,0.299,9.236,0.647,14.045
		c0.152,2.083,0.712,3.372,3.231,3.343c15.816-0.183,31.634-0.253,47.45-0.36c2.992,0.069,5.984,0.178,8.977,0.198
		c4.035,0.027,7.683,0.531,10.524-4.191c2.741-4.556,9.798-4.059,13.649-0.189c3.845,3.863,3.796,10.094-0.106,13.887
		c-3.916,3.806-11.042,4.221-13.645-0.369c-2.747-4.845-6.369-4.308-10.394-4.286c-3.327,0.018-6.655,0.093-9.982,0.142
		c-12.812-0.065-25.623-0.15-38.435-0.189c-10.234-0.031-10.233-0.006-11.005,9.876c-0.117,1.493-0.1,3.014-0.387,4.474
		c-0.673,3.419,0.417,4.585,4.074,4.515c11.98-0.229,23.975-0.334,35.948,0.027c5.335,0.16,9.702-0.381,11.961-5.884
		c3.553-1.828,7.126-2.709,10.892-0.507c4.043,2.366,5.959,7.262,4.458,11.605c-1.593,4.612-6.293,7.424-11.026,6.582
		c-1.455-0.259-2.903-0.559-4.354-0.839c-1.729-2.532-1.868-6.608-6.221-6.616c-14.452-0.025-28.904,0.001-43.356-0.022
		c-1.824-0.003-3.182,0.239-3.511,2.5c-0.773,5.317-1.739,10.606-2.649,16.047c18.754,0,37.177,0,55.6,0
		c2.661,0.052,5.323,0.166,7.983,0.14c3.968-0.039,7.664,0.706,10.397-4.214c2.524-4.546,9.789-4.126,13.648-0.351
		c3.771,3.69,3.97,9.623,0.452,13.524c-3.585,3.975-10.901,4.851-13.669,0.471c-3.35-5.305-7.727-4.491-12.34-4.52
		c-1.827-0.011-3.654,0.114-5.481,0.177C1098.001,386.094,1076.013,386.026,1054.024,385.959z"/>
	<path fill-rule="evenodd" clip-rule="evenodd" fill="#F4F5EE" d="M1119.997,380.933c-18.423,0-36.846,0-55.6,0
		c0.91-5.44,1.876-10.729,2.649-16.047c0.329-2.261,1.687-2.503,3.511-2.5c14.452,0.023,28.904-0.003,43.356,0.022
		c4.353,0.008,4.491,4.084,6.221,6.616C1117.752,372.967,1121.198,376.977,1119.997,380.933z"/>
	<path fill-rule="evenodd" clip-rule="evenodd" fill="#F4F5EE" d="M1120.166,352.183c-2.259,5.503-6.626,6.044-11.961,5.884
		c-11.974-0.361-23.968-0.257-35.948-0.027c-3.657,0.07-4.747-1.096-4.074-4.515c0.287-1.46,0.27-2.98,0.387-4.474
		c0.771-9.883,0.771-9.907,11.005-9.876c12.812,0.039,25.623,0.124,38.435,0.189c-0.007,3.068-0.006,6.137-0.023,9.206
		C1117.977,350.227,1117.893,351.911,1120.166,352.183z"/>
	<path fill-rule="evenodd" clip-rule="evenodd" fill="#D5D6DE" d="M910.014,522.109c3.52-5.295,9.713-8.022,12.996-13.537
		c0.479-0.804,2.405-1.275,0.7-2.668c14.863-2.492,29.542-5.715,43.404-11.824c6.65-2.932,13.14-6.225,19.703-9.354
		c-0.024,4.604-4.397,5.654-6.998,7.64c-19.187,14.65-40.661,24.535-64.369,29.377C913.687,522.104,911.828,521.998,910.014,522.109
		z"/>
	<path fill-rule="evenodd" clip-rule="evenodd" fill="#F3DF83" d="M877.055,495.915c-8.026-3.546-16.55-5.726-24.562-9.402
		c-21.499-9.866-39.959-23.565-55.321-41.588c-17.417-20.434-28.864-43.736-34.315-69.968c-6.667-32.088-3.592-63.273,9-93.549
		c8.431-20.271,20.646-38.003,36.549-52.989c23.722-22.352,51.767-36.194,84.093-41.4c18.73-3.017,35.913,2.602,52.848,8.956
		c18.54,6.956,34.91,17.617,49.435,31.24c26.392,24.756,42.75,54.788,48.315,90.525c7.044,45.235-3.662,86.1-31.581,122.257
		c-20.547,26.607-47.455,44.209-79.548,54.001c-1.708,0.521-3.61,0.656-4.957,2.072c-0.864,0.169-1.729,0.337-2.595,0.504
		c-0.485,0.092-0.971,0.186-1.455,0.279C907.605,499.095,892.296,499.151,877.055,495.915z M908.222,210.102
		c0.107-0.097,0.321-0.227,0.303-0.286c-0.072-0.238-0.216-0.455-0.333-0.68c-1.057-3.37-3.783-3.219-6.521-3.137
		c-35.579,1.061-66.053,14.384-91.475,38.985c-19.91,19.265-32.51,42.782-38.02,69.994c-0.562,2.772-1.07,5.726,2.15,7.507
		c-0.091,2.27-0.181,4.54-0.271,6.81c-5.458,2.857-6.044,11.355-1.041,15.082c0.562,15.521,3.518,30.555,9.163,45.041
		c-1.995,1.995-2.337,4.109-0.95,6.699c10.895,20.346,25.466,37.391,44.782,50.216c16.172,11.488,33.821,19.416,53.419,23.157
		c7.527,1.438,15.194,0.856,22.639,2.547c8.992,0.466,17.906-0.116,26.729-1.969c24.945-5.241,46.87-16.282,65.536-33.77
		c13.551-12.696,24.028-27.556,31.269-44.571c6.739-15.833,10.946-32.323,10.405-49.739c-0.05-1.588,0.466-3.515-2.01-3.859
		c-0.331-2.445-0.837-4.881-0.965-7.337c-0.626-11.963-3.13-23.522-7.528-34.642c-2.673-6.755-5.675-13.379-8.528-20.062
		c0.453-2.347-0.753-4.111-1.937-5.964c-8.117-12.708-18.018-23.809-29.781-33.241c-15.543-12.464-33.166-20.716-52.416-25.527
		c-1.873-0.468-4.771-1.67-5.827,1.763c-6.261-0.846-12.472-2.155-18.838-2.009C908.191,210.774,908.206,210.438,908.222,210.102z"
		/>
	<path fill-rule="evenodd" clip-rule="evenodd" fill="#FAFBF2" d="M697.02,356.971c0.713-5.675-1.527-11.178-0.976-16.844
		c0.016-0.272,0.026-0.545,0.032-0.817c9.306,0.008,18.612,0.017,27.919,0.025c0.234,6.161-1.597,12.206-1.023,18.386
		c-8.31,0.021-16.619,0.043-24.929,0.065C697.702,357.514,697.36,357.242,697.02,356.971z"/>
	<path fill-rule="evenodd" clip-rule="evenodd" fill="#FAFBF2" d="M696.034,380.923c-0.648-5.923,1.146-11.706,0.996-17.603
		c6.424-0.051,12.854,0.058,19.27-0.207c3.825-0.158,5.798,0.309,6.062,5.087c0.234,4.229,0.612,8.481,0.647,12.743
		C714.018,380.936,705.025,380.93,696.034,380.923z"/>
	<path fill-rule="evenodd" clip-rule="evenodd" fill="#D7DCDA" d="M723.01,380.943c-0.035-4.262-0.413-8.514-0.647-12.743
		c-0.265-4.778-2.237-5.245-6.062-5.087c-6.415,0.265-12.846,0.156-19.27,0.207c-0.093-0.188-0.123-0.387-0.093-0.596
		c13.447-1.016,26.909-0.086,40.362-0.318c1.953-0.033,2.448,1.114,2.707,2.816c0.676,4.431,1.287,8.895,2.377,13.23
		c0.674,2.682-0.524,2.695-2.416,2.666C734.315,381.029,728.662,380.998,723.01,380.943z"/>
	<path fill-rule="evenodd" clip-rule="evenodd" fill="#D7DCDA" d="M722.972,357.721c-0.573-6.18,1.258-12.225,1.023-18.386
		c4.454,0.016,9.904-1.534,13.082,0.487c3.189,2.029,0.65,7.996,1.651,12.129c1.099,4.544-0.169,6.792-5.355,6.08
		C729.956,357.562,726.442,357.799,722.972,357.721z"/>
	<path fill-rule="evenodd" clip-rule="evenodd" fill="#DFE3E0" d="M732.018,310.988c4.131-14.052,11.062-26.677,19.656-38.443
		c0.226-0.31,0.908-0.287,1.378-0.418c-4.489,12.059-9.171,24.058-11.404,36.814c-0.324,1.852-1.456,2.36-3.188,2.248
		C736.317,311.048,734.166,311.048,732.018,310.988z"/>
	<path fill-rule="evenodd" clip-rule="evenodd" fill="#DFE3E0" d="M726.044,334.167c-0.868-6.304,3.334-11.768,2.98-17.987
		c10.721-0.515,10.666-0.518,10.047,9.644c-0.628,10.309,0.385,8.436-9.094,8.619C728.668,334.468,727.355,334.265,726.044,334.167z
		"/>
	<path fill-rule="evenodd" clip-rule="evenodd" fill="#D7DCDA" d="M697.02,356.971c0.341,0.271,0.683,0.543,1.023,0.815
		c-0.355-0.017-0.711-0.032-1.066-0.048C696.939,357.479,696.953,357.223,697.02,356.971z"/>
	<path fill-rule="evenodd" clip-rule="evenodd" fill="#D7DCDA" d="M696.076,339.31c-0.006,0.272-0.017,0.545-0.032,0.817
		c-0.339-0.265-0.677-0.529-1.016-0.794C695.378,339.325,695.727,339.317,696.076,339.31z"/>
	<path fill-rule="evenodd" clip-rule="evenodd" fill="#F4F5EE" d="M701.006,323.408c-0.329,0.424-0.64,0.401-0.935-0.038
		C700.39,323.215,700.701,323.228,701.006,323.408z"/>
	<path fill-rule="evenodd" clip-rule="evenodd" fill="#DFE3E0" d="M753.049,272.132c0.216-0.335,0.433-0.671,0.648-1.007
		C753.481,271.461,753.265,271.797,753.049,272.132z"/>
	<path fill-rule="evenodd" clip-rule="evenodd" fill="#BEAB84" d="M922.96,496.853c0.484-0.094,0.97-0.188,1.455-0.279
		C923.931,496.668,923.445,496.76,922.96,496.853z"/>
	<path fill-rule="evenodd" clip-rule="evenodd" fill="#426578" d="M1063.856,237.349c0.139,3.895-3.634,7.751-7.577,7.747
		c-3.817-0.004-7.278-3.425-7.394-7.309c-0.115-3.888,3.107-7.457,6.954-7.701C1059.826,229.834,1063.715,233.356,1063.856,237.349z
		 M1056.509,242.192c2.567-0.181,4.406-1.544,4.41-4.595c0.003-3.015-1.687-4.594-4.689-4.589c-2.787,0.005-4.362,1.527-4.469,4.281
		C1051.646,240.241,1053.113,241.964,1056.509,242.192z"/>
	<path fill-rule="evenodd" clip-rule="evenodd" fill="#365C70" d="M767.447,215.728c-0.358,3.706-2.474,5.789-6.011,6.106
		c-3.141,0.282-6.582-3.312-6.176-6.408c0.464-3.536,2.659-5.834,6.282-5.713C765.127,209.833,767.149,212.115,767.447,215.728z"/>
	<path fill-rule="evenodd" clip-rule="evenodd" fill="#365C70" d="M730.042,264.021c-0.291,0.566-0.569,1.374-0.714,1.351
		c-4.827-0.782-4.176,4.688-7.028,6.114c-1.541-3.265-4.077-5.537-7.158-7.3c-0.02-0.011,0.543-1.529,0.843-1.533
		c3.333-0.04,4.479-1.875,5.123-4.928c0.287-1.363,2.812-1.244,2.919,0.274c0.233,3.334,1.902,4.36,4.83,4.551
		C729.274,262.578,729.635,263.491,730.042,264.021z"/>
	<path fill-rule="evenodd" clip-rule="evenodd" fill="#365C70" d="M1033.975,432.594c0.717-7.094,5.212-12.096,9.521-17.199
		c5.792,1.764,6.399,3.286,3.31,8.487c-1.441,2.425-3.015,4.773-4.427,7.214C1040.142,434.964,1037.438,435.811,1033.975,432.594z"
		/>
	<path fill-rule="evenodd" clip-rule="evenodd" fill="#365C70" d="M1055.77,447.251c0.312-3.106,2.245-5.318,5.933-5.378
		c3.727-0.061,5.771,2.264,6.17,5.774c0.355,3.132-3.125,6.446-6.28,6.347C1058.46,453.896,1055.747,451.004,1055.77,447.251z"/>
	<path fill-rule="evenodd" clip-rule="evenodd" fill="#426578" d="M1043.85,463.118c0.128,0.068,0.954,0.376,0.927,0.52
		c-0.941,4.914,4.844,3.788,5.977,6.75c0.119,0.31-0.414,1.25-0.591,1.236c-4.535-0.367-4.23,4.471-6.787,6.158
		c-0.234,0.154-1.5-0.539-1.548-0.93c-0.385-3.117-1.797-4.716-5.143-5.163c-1.284-0.171-1.016-2.809,0.457-3.001
		c2.896-0.38,4.419-1.411,4.454-4.47C1041.604,463.435,1042.543,462.905,1043.85,463.118z"/>
	<path fill-rule="evenodd" clip-rule="evenodd" fill="#426578" d="M721.936,428.059c3.867,0.076,7.219,3.485,7.264,7.389
		c0.047,4.069-3.6,7.739-7.577,7.628c-3.717-0.104-7.353-3.758-7.41-7.445C714.149,431.691,717.936,427.98,721.936,428.059z
		 M721.73,430.955c-2.88,0.095-4.621,1.632-4.594,4.618c0.027,2.971,1.743,4.568,4.768,4.532c2.824-0.034,4.342-1.648,4.425-4.346
		C726.42,432.832,724.926,431.081,721.73,430.955z"/>
	<path fill-rule="evenodd" clip-rule="evenodd" fill="#E7CE7D" d="M902.067,472.037c-7.444-1.69-15.111-1.109-22.639-2.547
		c-19.598-3.741-37.247-11.669-53.419-23.157c2.278,0.039,3.834-0.897,4.389-3.218c0.616-2.578-0.937-4.034-2.754-5.351
		c-16.618-12.029-29.602-27.198-39.049-45.387c-1.441-2.775-3.304-4.081-6.418-2.96c-5.646-14.486-8.601-29.521-9.163-45.041
		c3.115-0.104,5.025-1.636,4.924-4.82c-0.121-3.808,1.82-8.524-3.883-10.262c0.091-2.271,0.181-4.54,0.271-6.81
		c4.657,1.115,5.128-2.141,5.807-5.407c5.804-27.937,19.107-51.643,40.496-70.588c23.16-20.513,50.312-31.288,81.263-32.326
		c2.653-0.089,4.988-0.381,6.283-3.054c6.366-0.146,12.577,1.163,18.838,2.009c2.048,1.926,4.769,2.211,7.294,2.879
		c33.318,8.806,58.966,28.062,77.567,56.899c1.263,1.958,2.533,3.505,5.1,3.19c2.854,6.683,5.855,13.308,8.528,20.062
		c4.398,11.119,6.902,22.678,7.528,34.642c0.128,2.456,0.634,4.892,0.966,7.336c-1.129,1.645-2.171,3.228-2.03,5.447
		c0.411,6.497-0.687,12.842-1.845,19.235c-5.624,31.036-20.964,56.566-45.062,76.343c-22.36,18.351-48.235,28.846-77.683,28.932
		C904.571,468.095,902.441,468.841,902.067,472.037z M935.38,336.116c3.498-3.077,6.814-5.512,8.42-9.592
		c5.601-14.236-1.879-27.483-17.845-31.214c-3.51-0.82-8.665-0.255-10.203-2.389c-1.845-2.56-0.703-7.327-0.722-11.139
		c-0.045-9.635-0.01-9.555-9.795-9.006c-2.319,0.13-3.279,0.75-3.198,3.175c0.144,4.328-0.176,8.677,0.105,12.991
		c0.224,3.449-0.83,4.492-4.384,4.565c-4.205,0.087-6.301-0.787-5.593-5.453c0.347-2.28,0.061-4.656,0.061-6.989
		c-0.001-8.415-0.003-8.215-8.554-8.328c-3.701-0.049-4.53,1.362-4.342,4.665c0.229,3.986-0.102,8.003,0.104,11.991
		c0.154,2.989-0.781,4.149-3.914,4.034c-5.824-0.213-11.662-0.087-17.493-0.038c-1.263,0.011-3.38-0.531-3.542,0.906
		c-0.427,3.777-0.863,7.773-0.041,11.398c0.633,2.791,4.042,1.188,6.15,1.262c8.411,0.297,9.933,1.668,9.945,10.004
		c0.026,16.329,0.035,32.658-0.005,48.987c-0.016,6.614-0.957,7.842-7.427,7.566c-4.86-0.207-7.67,0.874-7.321,6.301
		c0.062,0.957-0.443,1.939-0.612,2.922c-1.111,6.455-1.104,6.456,5.669,6.458c2.167,0,4.332,0,6.498,0
		c11.968,0,11.968,0,11.968,11.831c0,9.685-0.004,9.593,9.771,9.082c2.38-0.124,3.205-0.835,3.14-3.195
		c-0.13-4.661,0.242-9.351-0.112-13.989c-0.346-4.518,2.573-3.607,5.132-3.748c2.865-0.157,5.224-0.267,4.887,3.94
		c-0.373,4.636-0.018,9.326-0.111,13.989c-0.041,2.062,0.582,2.829,2.801,3.003c10.175,0.798,10.168,0.882,10.168-9.117
		c0-0.833,0-1.667,0-2.499c0-9.379,0.003-9.353,9.554-10.446c1.976-0.227,3.945-0.626,5.877-1.109
		c14.514-3.637,21.13-11.217,21.915-26.387C953.002,347.536,949.137,341.232,935.38,336.116z M972.725,245.204
		c-0.438-0.695-0.665-1.372-1.135-1.756c-8.316-6.819-17.589-11.865-27.932-14.889c-1.119-0.327-1.982,0.09-2.457,1.109
		c-0.476,1.024-0.2,1.969,0.738,2.605c0.539,0.365,1.16,0.642,1.781,0.847c8.591,2.824,16.552,6.821,23.651,12.484
		c1.116,0.891,2.373,2.055,4.021,1.101C971.907,246.407,972.229,245.779,972.725,245.204z"/>
	<path fill-rule="evenodd" clip-rule="evenodd" fill="#355B6E" d="M908.176,211.111c-1.295,2.673-3.63,2.964-6.283,3.054
		c-30.95,1.039-58.103,11.813-81.263,32.326c-21.389,18.945-34.692,42.651-40.496,70.588c-0.679,3.266-1.149,6.521-5.807,5.407
		c-3.221-1.781-2.712-4.735-2.15-7.507c5.51-27.212,18.109-50.729,38.02-69.994c25.422-24.601,55.896-37.924,91.475-38.985
		c2.737-0.082,5.464-0.232,6.521,3.137c-0.125,0.326-0.115,0.648,0.03,0.966C908.206,210.438,908.191,210.774,908.176,211.111z"/>
	<path fill-rule="evenodd" clip-rule="evenodd" fill="#CBBE7E" d="M902.067,472.037c0.374-3.196,2.504-3.942,5.311-3.951
		c29.447-0.086,55.322-10.581,77.683-28.932c24.098-19.776,39.438-45.307,45.062-76.343c1.158-6.394,2.256-12.738,1.845-19.235
		c-0.141-2.219,0.901-3.802,2.03-5.447c2.475,0.344,1.959,2.271,2.009,3.859c0.541,17.416-3.666,33.906-10.405,49.739
		c-7.24,17.016-17.718,31.875-31.269,44.571c-18.666,17.487-40.591,28.528-65.536,33.77
		C919.974,471.921,911.06,472.503,902.067,472.037z"/>
	<path fill-rule="evenodd" clip-rule="evenodd" fill="#355B6E" d="M782.178,389.418c3.114-1.121,4.977,0.185,6.418,2.96
		c9.447,18.188,22.431,33.357,39.049,45.387c1.817,1.316,3.37,2.772,2.754,5.351c-0.555,2.32-2.11,3.257-4.389,3.218
		c-19.316-12.825-33.888-29.87-44.782-50.216C779.841,393.527,780.183,391.413,782.178,389.418z"/>
	<path fill-rule="evenodd" clip-rule="evenodd" fill="#CEC280" d="M1016.975,276.089c-2.566,0.315-3.837-1.231-5.1-3.19
		c-18.602-28.838-44.249-48.094-77.567-56.899c-2.525-0.668-5.246-0.954-7.294-2.879c1.056-3.434,3.954-2.231,5.827-1.763
		c19.25,4.811,36.873,13.063,52.416,25.527c11.764,9.433,21.664,20.533,29.781,33.241
		C1016.222,271.978,1017.428,273.742,1016.975,276.089z"/>
	<path fill-rule="evenodd" clip-rule="evenodd" fill="#355B6E" d="M774.056,329.295c5.703,1.738,3.762,6.454,3.883,10.262
		c0.102,3.184-1.809,4.716-4.924,4.82C768.012,340.65,768.598,332.152,774.056,329.295z"/>
	<path fill-rule="evenodd" clip-rule="evenodd" fill="#E7CE7D" d="M908.222,210.102c-0.146-0.318-0.155-0.64-0.03-0.966
		c0.117,0.225,0.261,0.442,0.333,0.68C908.543,209.875,908.329,210.005,908.222,210.102z"/>
	<path fill-rule="evenodd" clip-rule="evenodd" fill="#F4F5EE" d="M1056.509,242.192c-3.396-0.229-4.862-1.952-4.748-4.902
		c0.106-2.754,1.682-4.276,4.469-4.281c3.003-0.005,4.692,1.574,4.689,4.589C1060.915,240.648,1059.076,242.012,1056.509,242.192z"
		/>
	<path fill-rule="evenodd" clip-rule="evenodd" fill="#F4F5EE" d="M721.73,430.955c3.195,0.126,4.689,1.877,4.599,4.805
		c-0.083,2.697-1.601,4.312-4.425,4.346c-3.024,0.036-4.74-1.562-4.768-4.532C717.109,432.587,718.851,431.05,721.73,430.955z"/>
	<linearGradient id="SVGID_2_" gradientUnits="userSpaceOnUse" x1="853.9805" y1="341.5034" x2="952.4023" y2="341.5034">
		<stop  offset="0" style="stop-color:#00AEEF"/>
		<stop  offset="1" style="stop-color:#1C75BC"/>
	</linearGradient>
	<path fill-rule="evenodd" clip-rule="evenodd" fill="url(#SVGID_2_)" d="M935.38,336.116c13.757,5.117,17.622,11.42,16.949,24.433
		c-0.785,15.17-7.401,22.75-21.915,26.387c-1.932,0.483-3.901,0.883-5.877,1.109c-9.551,1.094-9.554,1.067-9.554,10.446
		c0,0.832,0,1.666,0,2.499c0,9.999,0.007,9.915-10.168,9.117c-2.219-0.174-2.842-0.94-2.801-3.003
		c0.094-4.663-0.262-9.354,0.111-13.989c0.337-4.207-2.021-4.098-4.887-3.94c-2.559,0.141-5.478-0.77-5.132,3.748
		c0.354,4.639-0.018,9.328,0.112,13.989c0.065,2.36-0.76,3.071-3.14,3.195c-9.774,0.511-9.771,0.603-9.771-9.082
		c0-11.831,0-11.831-11.968-11.831c-2.166,0-4.331,0-6.498,0c-6.773-0.002-6.78-0.003-5.669-6.458
		c0.169-0.982,0.674-1.965,0.612-2.922c-0.349-5.427,2.461-6.508,7.321-6.301c6.47,0.275,7.411-0.952,7.427-7.566
		c0.04-16.329,0.031-32.658,0.005-48.987c-0.013-8.335-1.534-9.707-9.945-10.004c-2.108-0.075-5.518,1.529-6.15-1.262
		c-0.822-3.625-0.386-7.622,0.041-11.398c0.162-1.437,2.279-0.896,3.542-0.906c5.831-0.049,11.669-0.175,17.493,0.038
		c3.133,0.115,4.068-1.045,3.914-4.034c-0.205-3.988,0.125-8.005-0.104-11.991c-0.188-3.303,0.641-4.714,4.342-4.665
		c8.551,0.113,8.553-0.086,8.554,8.328c0,2.333,0.286,4.708-0.061,6.989c-0.708,4.667,1.388,5.541,5.593,5.453
		c3.554-0.074,4.607-1.117,4.384-4.565c-0.281-4.314,0.038-8.663-0.105-12.991c-0.081-2.426,0.879-3.045,3.198-3.175
		c9.785-0.549,9.75-0.629,9.795,9.006c0.019,3.812-1.123,8.579,0.722,11.139c1.538,2.134,6.693,1.569,10.203,2.389
		c15.966,3.73,23.445,16.978,17.845,31.214C942.194,330.604,938.878,333.039,935.38,336.116z M892.217,359.614
		c0,3.816,0.021,7.634-0.01,11.45c-0.014,1.666,0.237,2.949,2.365,2.93c8.958-0.084,17.95,0.083,26.34-3.838
		c4.522-2.114,6.853-5.807,6.715-10.705c-0.137-4.91-2.757-8.411-7.321-10.325c-5.268-2.209-10.77-3.085-16.483-3.136
		c-11.609-0.105-11.608-0.186-11.609,11.135C892.213,357.954,892.213,358.784,892.217,359.614z M892.275,320.469
		c0.028,0,0.057,0,0.085,0c0,3.325,0,6.649-0.001,9.974c0,1.426,0.165,2.672,2.07,2.682c7.134,0.034,14.307,0.541,21.01-2.801
		c4.082-2.035,6.484-5.14,6.497-9.759c0.014-4.594-2.254-7.962-6.317-9.937c-3.459-1.683-7.207-2.42-11.073-2.601
		c-12.354-0.578-12.353-0.598-12.271,11.445C892.277,319.804,892.275,320.136,892.275,320.469z"/>
	<path fill-rule="evenodd" clip-rule="evenodd" fill="#FAFBF2" d="M972.725,245.204c-0.496,0.575-0.817,1.203-1.331,1.5
		c-1.648,0.955-2.905-0.209-4.021-1.101c-7.1-5.663-15.061-9.66-23.651-12.484c-0.621-0.205-1.242-0.481-1.781-0.847
		c-0.938-0.636-1.214-1.581-0.738-2.605c0.475-1.019,1.338-1.437,2.457-1.109c10.343,3.024,19.615,8.07,27.932,14.889
		C972.06,243.832,972.287,244.509,972.725,245.204z"/>
	<path fill-rule="evenodd" clip-rule="evenodd" fill="#E3CB7D" d="M892.215,359.614c-0.002-0.83-0.002-1.66-0.002-2.489
		c0.001-11.321,0-11.24,11.609-11.135c5.714,0.051,11.216,0.927,16.483,3.136c4.564,1.915,7.185,5.415,7.321,10.325
		c0.138,4.898-2.192,8.591-6.715,10.705c-8.39,3.921-17.382,3.754-26.34,3.838c-2.128,0.02-2.379-1.264-2.365-2.93
		C892.238,367.248,892.217,363.431,892.215,359.614z"/>
	<path fill-rule="evenodd" clip-rule="evenodd" fill="#E3CB7D" d="M892.275,320.469c0-0.333,0.002-0.665-0.001-0.997
		c-0.081-12.043-0.082-12.022,12.271-11.445c3.866,0.181,7.614,0.918,11.073,2.601c4.063,1.975,6.331,5.343,6.317,9.937
		c-0.013,4.619-2.415,7.724-6.497,9.759c-6.703,3.342-13.876,2.835-21.01,2.801c-1.905-0.009-2.07-1.256-2.07-2.682
		c0.001-3.325,0.001-6.649,0.001-9.974C892.332,320.469,892.304,320.469,892.275,320.469z"/>
</g>
</svg>
