<?xml version="1.0" encoding="utf-8"?>
<!-- Generator: Adobe Illustrator 16.0.0, SVG Export Plug-In . SVG Version: 6.00 Build 0)  -->
<!DOCTYPE svg PUBLIC "-//W3C//DTD SVG 1.1//EN" "http://www.w3.org/Graphics/SVG/1.1/DTD/svg11.dtd">
<svg version="1.1" id="Layer_1" xmlns="http://www.w3.org/2000/svg" xmlns:xlink="http://www.w3.org/1999/xlink" x="0px" y="0px"
	 width="1216px" height="705px" viewBox="0 0 1216 705" enable-background="new 0 0 1216 705" xml:space="preserve">
<linearGradient id="SVGID_1_" gradientUnits="userSpaceOnUse" x1="12.5" y1="356.5" x2="1209.6931" y2="356.5">
	<stop  offset="0" style="stop-color:#7C76B7"/>
	<stop  offset="1" style="stop-color:#000000"/>
</linearGradient>
<rect x="-7.5" y="-5" fill="url(#SVGID_1_)" width="1236" height="723"/>
<text transform="matrix(1 0 0 1 125.5 243)" fill="#F2F2F2" font-family="'MyriadPro-Regular'" font-size="43">Echo</text>
<rect x="112.5" y="278" fill="none" width="660" height="383"/>
<text id="OPERATION_BAYONET" transform="matrix(1 0 0 1 112.5 345.4492)"><tspan x="0" y="0" fill="#D367BF" font-family="'MyriadPro-Regular'" font-size="95">OPERATION</tspan><tspan x="0" y="114" fill="#D367BF" font-family="'MyriadPro-Regular'" font-size="95">BAYONET</tspan></text>
<g>
	<g>
		<path fill="#FFFFFF" d="M1121.007,640.921c2.471-0.1,4.713-1.481,5.909-3.646c1.198-2.164,1.176-4.799-0.053-6.946
			c-0.363-0.635-34.832-61.069-52.69-115.05c-0.077-0.236-0.155-0.474-0.231-0.709c-0.202-0.613-0.401-1.227-0.6-1.838
			c-0.16-0.499-0.319-1-0.477-1.497c-0.143-0.451-0.286-0.902-0.427-1.35c-0.28-0.906-0.56-1.809-0.832-2.709
			c-0.021-0.073-0.045-0.151-0.066-0.224c-0.002-0.001-0.002-0.002-0.002-0.004c-6.771-22.48-16.331-43.626-28.413-62.842
			c-2.081-3.309-6.45-4.305-9.76-2.225c-3.308,2.08-4.304,6.451-2.225,9.76c11.408,18.144,20.439,38.126,26.844,59.394
			c0.471,1.559,0.958,3.128,1.458,4.695c0.148,0.473,0.304,0.947,0.457,1.419c0.364,1.132,0.733,2.268,1.113,3.403
			c0.167,0.504,0.338,1.01,0.507,1.516c0.413,1.22,0.832,2.443,1.259,3.665c0.125,0.363,0.249,0.722,0.376,1.085
			c1.168,3.322,2.385,6.648,3.642,9.971c0.052,0.139,0.104,0.276,0.158,0.415c0.619,1.632,1.245,3.262,1.881,4.889
			c0.013,0.033,0.025,0.064,0.038,0.097c6.879,17.587,14.69,34.783,21.895,49.624c-10.977-8.013-21.608-18.095-31.78-30.161
			c-5.675-13.834-10.305-26.664-13.764-38.155c-6.772-22.481-16.332-43.627-28.416-62.843L908.893,289.033l14.332-9.014
			l92.449,147.024c2.079,3.311,6.449,4.307,9.76,2.224c3.308-2.079,4.304-6.446,2.223-9.758l-92.448-147.025l12.474-7.844
			c4.021-2.528,6.816-6.47,7.872-11.102c1.055-4.629,0.244-9.396-2.284-13.416c-2.528-4.021-6.472-6.818-11.102-7.874
			c-4.631-1.055-9.397-0.244-13.418,2.286l-18.337,11.53l-90.39-143.75c2.78-1.934,4.726-4.782,5.481-8.105
			c0.807-3.534,0.187-7.169-1.742-10.236l-3.496-5.557c-1.927-3.068-4.938-5.201-8.472-6.006c-3.534-0.806-7.168-0.185-10.235,1.744
			l-60.709,38.173c-3.069,1.929-5.201,4.936-6.007,8.47c-0.805,3.534-0.188,7.169,1.744,10.237l3.493,5.557
			c1.929,3.068,4.937,5.2,8.471,6.005c3.323,0.757,6.73,0.239,9.678-1.428l19.079,30.347c2.082,3.308,6.452,4.304,9.761,2.225
			c3.309-2.081,4.305-6.452,2.225-9.76l-19.063-30.319l37.827-23.785l90.373,143.726l-37.827,23.785l-55.833-88.795
			c-2.08-3.308-6.449-4.304-9.759-2.224c-3.309,2.082-4.305,6.453-2.226,9.76l55.834,88.794l-18.339,11.531
			c-4.021,2.527-6.818,6.471-7.874,11.101c-1.055,4.632-0.242,9.396,2.287,13.419c2.526,4.019,6.472,6.815,11.101,7.87
			c4.631,1.056,9.397,0.244,13.417-2.282l12.062-7.586l141.889,234.225c0.021,0.036,0.042,0.068,0.062,0.102
			C1059.222,642.353,1118.511,641.021,1121.007,640.921z M756.706,125.445l-4.954,3.112l-2.87-4.561l59.716-37.547l2.87,4.562
			l-4.953,3.113L756.706,125.445z M841.678,314.573c-0.819,0.517-1.791,0.683-2.736,0.467c-0.942-0.215-1.747-0.786-2.264-1.607
			c-1.031-1.639-0.502-3.969,1.14-4.999l98.469-61.917c0.82-0.515,1.792-0.681,2.735-0.466c0.945,0.215,1.749,0.787,2.265,1.605
			c0.515,0.822,0.682,1.794,0.466,2.737c-0.214,0.944-0.785,1.749-1.605,2.264l-18.463,11.61l-26.317,16.547l-35.532,22.344
			L841.678,314.573z M1087.502,617.319c-18.135-9.04-45.385-28.779-72.262-71.502l-141.98-234.38l23.649-14.873l107.915,171.625
			c11.409,18.141,20.439,38.126,26.844,59.392c3.679,12.214,8.607,25.834,14.649,40.48c0.274,0.664,0.649,1.283,1.111,1.838
			c17.227,20.628,35.865,36.046,55.429,45.888c1.766,3.371,3.395,6.43,4.837,9.104
			C1102.284,623.551,1095.394,621.252,1087.502,617.319z"/>
	</g>
</g>
</svg>
